<svg width="38" height="25" viewBox="0 0 38 25" fill="none" xmlns="http://www.w3.org/2000/svg">
<path d="M12.7023 7.86387C12.7023 6.57987 12.4503 5.56587 11.9463 4.82187C11.4423 4.06587 10.7523 3.52587 9.87625 3.20187C9.00025 2.86587 7.99825 2.69787 6.87025 2.69787H3.28825V13.2819H6.74425C7.90825 13.2819 8.93425 13.1259 9.82225 12.8139C10.7103 12.4899 11.4123 11.9379 11.9283 11.1579C12.4443 10.3659 12.7023 9.26787 12.7023 7.86387ZM16.0503 7.82787C16.0503 9.75987 15.6363 11.3079 14.8083 12.4719C13.9923 13.6359 12.8643 14.4819 11.4243 15.0099C9.98425 15.5379 8.32825 15.8019 6.45625 15.8019H3.28825V24.9999H0.15625V0.213867H6.49225C9.44425 0.213867 11.7723 0.837868 13.4763 2.08587C15.1923 3.32187 16.0503 5.23587 16.0503 7.82787Z" fill="white"/>
<path d="M29.8782 2.89587V24.9999H26.7642V2.89587H19.0242V0.213867H37.7262L37.4022 2.89587H29.8782Z" fill="white"/>
</svg>
